<?xml version="1.0" standalone="no"?>
<!DOCTYPE svg PUBLIC "-//W3C//DTD SVG 20010904//EN"
 "http://www.w3.org/TR/2001/REC-SVG-20010904/DTD/svg10.dtd">
<svg version="1.0" xmlns="http://www.w3.org/2000/svg"
 width="256.000000pt" height="256.000000pt" viewBox="0 0 256.000000 256.000000"
 preserveAspectRatio="xMidYMid meet">

<g transform="translate(0.000000,256.000000) scale(0.100000,-0.100000)"
fill="#000000" stroke="none">
<path d="M0 1331 l0 -791 158 0 c103 -1 151 -4 141 -10 -9 -5 -22 -23 -29 -40
-17 -42 -2 -59 37 -41 24 11 29 10 40 -6 24 -31 12 -57 -28 -63 -40 -6 -122
-71 -133 -106 -5 -17 3 -33 33 -68 21 -25 59 -77 83 -116 23 -38 48 -69 54
-68 6 2 32 28 59 58 57 66 228 252 306 334 51 54 57 58 78 46 27 -14 84 -6
119 16 19 12 22 21 18 45 -18 93 -20 84 26 112 24 15 38 26 31 27 -7 0 -9 9
-4 27 4 16 10 27 14 26 4 -2 14 -3 23 -3 8 0 12 -5 9 -10 -5 -8 -11 -7 -21 1
-11 9 -14 8 -14 -4 0 -33 20 -25 64 24 l46 51 0 -37 c0 -50 17 -35 25 23 l6
47 102 61 102 60 21 -62 c34 -106 120 -211 226 -277 112 -70 360 -98 518 -58
117 29 201 73 269 140 68 67 111 139 142 241 19 62 23 97 23 205 0 116 -3 139
-27 209 -42 121 -106 207 -200 269 l-38 26 38 24 c21 13 80 47 130 76 81 46
91 56 83 72 -6 10 -15 21 -20 24 -9 6 -200 -98 -272 -147 -26 -18 -29 -18
-103 3 -66 18 -98 20 -214 17 -117 -4 -148 -8 -220 -33 -206 -70 -332 -224
-363 -445 -11 -77 -11 -77 -57 -105 -60 -36 -121 -49 -121 -26 0 10 -5 22 -12
29 -12 12 -15 11 57 33 40 12 125 57 125 66 0 14 -54 93 -64 93 -15 0 -49 -24
-105 -72 l-44 -38 -17 27 c-41 68 -148 138 -242 157 l-63 13 75 36 c87 42 168
116 202 186 32 65 33 214 2 282 -44 96 -136 161 -282 201 -70 20 -108 22 -434
26 l-358 4 0 -791z m603 509 c52 -15 104 -64 118 -111 16 -52 -2 -134 -37
-172 -52 -56 -98 -71 -231 -75 l-123 -4 0 184 c0 102 3 188 8 193 10 10 217
-1 265 -15z m1507 -305 c0 -2 -10 -9 -22 -15 -22 -11 -22 -10 -4 4 21 17 26
19 26 11z m121 -28 c-10 -9 -11 -8 -5 6 3 10 9 15 12 12 3 -3 0 -11 -7 -18z
m-171 -2 c0 -2 -10 -9 -22 -15 -22 -11 -22 -10 -4 4 21 17 26 19 26 11z m-70
-40 c0 -2 -10 -9 -22 -15 -22 -11 -22 -10 -4 4 21 17 26 19 26 11z m-50 -35
c0 -5 -4 -10 -9 -10 -5 0 -55 -27 -110 -60 -70 -41 -98 -53 -91 -40 6 11 15
20 21 20 5 0 42 20 82 44 60 36 84 49 105 55 1 1 2 -3 2 -9z m135 -19 c-3 -5
8 -19 24 -31 50 -35 91 -132 97 -230 14 -202 -58 -342 -190 -370 -174 -36
-309 70 -323 254 l-5 61 47 25 c50 27 65 45 65 82 1 25 -4 22 165 137 121 83
130 88 120 72z m-395 -126 c0 -2 -13 -11 -30 -20 -38 -19 -40 -11 -2 9 31 17
32 18 32 11z m-70 -40 c0 -2 -10 -9 -22 -15 -22 -11 -22 -10 -4 4 21 17 26 19
26 11z m-972 -40 c94 -28 152 -99 152 -185 0 -30 -4 -40 -16 -40 -19 0 -184
-77 -184 -86 0 -3 13 -25 29 -48 l28 -43 -158 -2 -159 -2 0 210 0 211 128 0
c87 0 145 -5 180 -15z m902 0 c0 -2 -10 -9 -22 -15 -22 -11 -22 -10 -4 4 21
17 26 19 26 11z m-50 -30 c0 -2 -13 -11 -30 -20 -38 -19 -40 -11 -2 9 31 17
32 18 32 11z m-75 -43 c-17 -15 -174 -112 -180 -112 -23 0 13 28 90 70 91 49
107 57 90 42z m-428 -28 c-3 -3 -12 -4 -19 -1 -8 3 -5 6 6 6 11 1 17 -2 13 -5z
m-90 -41 c-3 -10 -5 -4 -5 12 0 17 2 24 5 18 2 -7 2 -21 0 -30z m730 -9 c-3
-3 -12 -4 -19 -1 -8 3 -5 6 6 6 11 1 17 -2 13 -5z m-587 -54 c0 -11 -4 -20 -9
-20 -5 0 -7 9 -4 20 3 11 7 20 9 20 2 0 4 -9 4 -20z m-397 -385 c-3 -9 -8 -14
-10 -11 -3 3 -2 9 2 15 9 16 15 13 8 -4z m-80 -62 c8 -43 -13 -59 -55 -43 -54
21 -55 30 -5 30 34 0 47 4 47 14 0 8 -6 17 -12 19 -8 4 -7 6 3 6 10 1 19 -9
22 -26z m-113 -65 c0 -54 -42 -75 -75 -38 -18 20 -18 21 15 50 36 32 60 27 60
-12z"/>
</g>
</svg>
